<svg width="490" height="343" viewBox="0 0 490 343" fill="none" xmlns="http://www.w3.org/2000/svg">
<g opacity="0.2">
<mask id="mask0_1_1750" style="mask-type:alpha" maskUnits="userSpaceOnUse" x="2" y="-91" width="630" height="572">
<path d="M116.385 480.362L624.535 359.539C629.283 358.41 632.217 353.645 631.088 348.896L528.256 -83.5896C527.127 -88.3382 522.362 -91.2724 517.613 -90.1433L9.4638 30.6799C4.7152 31.809 1.78098 36.5738 2.91006 41.3224L105.743 473.808C106.872 478.557 111.637 481.491 116.385 480.362Z" fill="#F5F5F5"/>
</mask>
<g mask="url(#mask0_1_1750)">
<path d="M81.0347 -189.824C334.794 111.392 -86.851 240.716 110.035 297.008C423.867 386.737 439.917 150.44 685.582 345.024" stroke="#F23F18" stroke-width="2"/>
<path d="M113.382 -206.6C367.141 94.616 -54.5034 223.94 142.383 280.233C456.215 369.961 472.264 133.664 717.93 328.248" stroke="#F23F18" stroke-width="2"/>
<path d="M145.73 -223.375C399.489 77.8401 -22.1557 207.165 174.73 263.457C488.563 353.185 504.612 116.889 750.277 311.472" stroke="#F23F18" stroke-width="2"/>
<path d="M178.078 -240.151C431.837 61.0645 10.1919 190.389 207.078 246.681C520.91 336.409 536.96 100.113 782.625 294.697" stroke="#F23F18" stroke-width="2"/>
<path d="M210.429 -256.927C464.188 44.2888 42.5436 173.613 239.43 229.905C553.261 319.634 569.311 83.3373 814.977 277.921" stroke="#F23F18" stroke-width="2"/>
<path d="M242.777 -273.702C496.536 27.5132 74.8912 156.838 271.777 213.13C585.609 302.858 601.659 66.5617 847.324 261.145" stroke="#F23F18" stroke-width="2"/>
<path d="M275.125 -290.478C528.884 10.7375 107.239 140.062 304.125 196.354C617.957 286.083 634.007 49.7861 879.672 244.37" stroke="#F23F18" stroke-width="2"/>
<path d="M307.472 -307.254C561.231 -6.03809 139.587 123.286 336.472 179.579C650.304 269.307 666.354 33.0104 912.02 227.594" stroke="#F23F18" stroke-width="2"/>
<path d="M339.82 -324.03C593.579 -22.8141 171.934 106.51 368.82 162.803C682.652 252.531 698.702 16.2344 944.367 210.818" stroke="#F23F18" stroke-width="2"/>
<path d="M372.168 -340.805C625.927 -39.5897 204.282 89.7347 401.168 146.027C715 235.756 731.05 -0.541203 976.715 194.042" stroke="#F23F18" stroke-width="2"/>
<path d="M404.515 -357.581C658.274 -56.3654 236.629 72.9591 433.515 129.251C747.348 218.98 763.397 -17.3168 1009.06 177.267" stroke="#F23F18" stroke-width="2"/>
<path d="M436.863 -374.357C690.622 -73.141 268.977 56.1835 465.863 112.476C779.696 202.204 795.745 -34.0925 1041.41 160.491" stroke="#F23F18" stroke-width="2"/>
<path d="M469.214 -391.132C722.973 -89.9166 301.329 39.4078 498.215 95.7C812.047 185.429 828.097 -50.8681 1073.76 143.715" stroke="#F23F18" stroke-width="2"/>
</g>
</g>
</svg>
