<svg xmlns="http://www.w3.org/2000/svg">
    <symbol viewBox="0 0 112 17" id="mi">
        <g>
            <path d="M13.74 16L13.72 6.72L9.12 14.4H7.96L3.36 6.84V16H0.88V2H3.02L8.58 11.28L14.04 2H16.18L16.2 16H13.74ZM19.7416 5.32H22.2416V16H19.7416V5.32ZM21.0016 3.56C20.5482 3.56 20.1682 3.42 19.8616 3.14C19.5549 2.84667 19.4016 2.48667 19.4016 2.06C19.4016 1.63333 19.5549 1.28 19.8616 0.999999C20.1682 0.706666 20.5482 0.56 21.0016 0.56C21.4549 0.56 21.8349 0.699999 22.1416 0.979999C22.4482 1.24667 22.6016 1.58667 22.6016 2C22.6016 2.44 22.4482 2.81333 22.1416 3.12C21.8482 3.41333 21.4682 3.56 21.0016 3.56ZM38.6228 16L38.6028 6.72L34.0028 14.4H32.8428L28.2428 6.84V16H25.7628V2H27.9028L33.4628 11.28L38.9228 2H41.0628L41.0828 16H38.6228ZM44.6244 5.32H47.1244V16H44.6244V5.32ZM45.8844 3.56C45.431 3.56 45.051 3.42 44.7444 3.14C44.4377 2.84667 44.2844 2.48667 44.2844 2.06C44.2844 1.63333 44.4377 1.28 44.7444 0.999999C45.051 0.706666 45.431 0.56 45.8844 0.56C46.3377 0.56 46.7177 0.699999 47.0244 0.979999C47.331 1.24667 47.4844 1.58667 47.4844 2C47.4844 2.44 47.331 2.81333 47.0244 3.12C46.731 3.41333 46.351 3.56 45.8844 3.56Z"/>
        </g>
    </symbol>
    <symbol viewBox="0 0 112 17" id="sm">
        <g>
            <path d="M54.9856 16.2C53.9056 16.2 52.859 16.0467 51.8456 15.74C50.8456 15.4333 50.0523 15.0267 49.4656 14.52L50.3656 12.5C50.939 12.9533 51.639 13.3267 52.4656 13.62C53.3056 13.9 54.1456 14.04 54.9856 14.04C56.0256 14.04 56.799 13.8733 57.3056 13.54C57.8256 13.2067 58.0856 12.7667 58.0856 12.22C58.0856 11.82 57.939 11.4933 57.6456 11.24C57.3656 10.9733 57.0056 10.7667 56.5656 10.62C56.1256 10.4733 55.5256 10.3067 54.7656 10.12C53.699 9.86667 52.8323 9.61333 52.1656 9.36C51.5123 9.10667 50.9456 8.71333 50.4656 8.18C49.999 7.63333 49.7656 6.9 49.7656 5.98C49.7656 5.20667 49.9723 4.50667 50.3856 3.88C50.8123 3.24 51.4456 2.73333 52.2856 2.36C53.139 1.98667 54.179 1.8 55.4056 1.8C56.259 1.8 57.099 1.90667 57.9256 2.12C58.7523 2.33333 59.4656 2.64 60.0656 3.04L59.2456 5.06C58.6323 4.7 57.9923 4.42667 57.3256 4.24C56.659 4.05333 56.0123 3.96 55.3856 3.96C54.359 3.96 53.5923 4.13333 53.0856 4.48C52.5923 4.82667 52.3456 5.28667 52.3456 5.86C52.3456 6.26 52.4856 6.58667 52.7656 6.84C53.059 7.09333 53.4256 7.29333 53.8656 7.44C54.3056 7.58667 54.9056 7.75333 55.6656 7.94C56.7056 8.18 57.559 8.43333 58.2256 8.7C58.8923 8.95333 59.459 9.34667 59.9256 9.88C60.4056 10.4133 60.6456 11.1333 60.6456 12.04C60.6456 12.8133 60.4323 13.5133 60.0056 14.14C59.5923 14.7667 58.959 15.2667 58.1056 15.64C57.2523 16.0133 56.2123 16.2 54.9856 16.2ZM76.4638 5.2C77.8104 5.2 78.8771 5.59333 79.6638 6.38C80.4504 7.15333 80.8438 8.32 80.8438 9.88V16H78.3438V10.2C78.3438 9.26667 78.1371 8.56667 77.7238 8.1C77.3104 7.62 76.7171 7.38 75.9438 7.38C75.1038 7.38 74.4304 7.66 73.9238 8.22C73.4171 8.76667 73.1638 9.55333 73.1638 10.58V16H70.6638V10.2C70.6638 9.26667 70.4571 8.56667 70.0438 8.1C69.6304 7.62 69.0371 7.38 68.2638 7.38C67.4104 7.38 66.7304 7.65333 66.2238 8.2C65.7304 8.74667 65.4838 9.54 65.4838 10.58V16H62.9838V5.32H65.3638V6.68C65.7638 6.2 66.2638 5.83333 66.8638 5.58C67.4638 5.32667 68.1304 5.2 68.8638 5.2C69.6638 5.2 70.3704 5.35333 70.9838 5.66C71.6104 5.95333 72.1038 6.39333 72.4638 6.98C72.9038 6.42 73.4704 5.98667 74.1638 5.68C74.8571 5.36 75.6238 5.2 76.4638 5.2ZM88.1184 5.2C89.6918 5.2 90.8918 5.58 91.7184 6.34C92.5584 7.08667 92.9784 8.22 92.9784 9.74V16H90.6184V14.7C90.3118 15.1667 89.8718 15.5267 89.2984 15.78C88.7384 16.02 88.0584 16.14 87.2584 16.14C86.4584 16.14 85.7584 16.0067 85.1584 15.74C84.5584 15.46 84.0918 15.08 83.7584 14.6C83.4384 14.1067 83.2784 13.5533 83.2784 12.94C83.2784 11.98 83.6318 11.2133 84.3384 10.64C85.0584 10.0533 86.1851 9.76 87.7184 9.76H90.4784V9.6C90.4784 8.85333 90.2518 8.28 89.7984 7.88C89.3584 7.48 88.6984 7.28 87.8184 7.28C87.2184 7.28 86.6251 7.37333 86.0384 7.56C85.4651 7.74667 84.9784 8.00667 84.5784 8.34L83.5984 6.52C84.1584 6.09333 84.8318 5.76667 85.6184 5.54C86.4051 5.31333 87.2384 5.2 88.1184 5.2ZM87.7784 14.32C88.4051 14.32 88.9584 14.18 89.4384 13.9C89.9318 13.6067 90.2784 13.1933 90.4784 12.66V11.42H87.8984C86.4584 11.42 85.7384 11.8933 85.7384 12.84C85.7384 13.2933 85.9184 13.6533 86.2784 13.92C86.6384 14.1867 87.1384 14.32 87.7784 14.32ZM98.5669 6.88C99.2869 5.76 100.554 5.2 102.367 5.2V7.58C102.154 7.54 101.96 7.52 101.787 7.52C100.814 7.52 100.054 7.80667 99.5069 8.38C98.9602 8.94 98.6869 9.75333 98.6869 10.82V16H96.1869V5.32H98.5669V6.88ZM111.298 15.42C111.005 15.66 110.645 15.84 110.218 15.96C109.805 16.08 109.365 16.14 108.898 16.14C107.725 16.14 106.818 15.8333 106.178 15.22C105.538 14.6067 105.218 13.7133 105.218 12.54V7.4H103.458V5.4H105.218V2.96H107.718V5.4H110.578V7.4H107.718V12.48C107.718 13 107.845 13.4 108.098 13.68C108.352 13.9467 108.718 14.08 109.198 14.08C109.758 14.08 110.225 13.9333 110.598 13.64L111.298 15.42Z" />
        </g>
    </symbol>
    <symbol viewBox="0 0 18 18" id="ph">
        <g>
            <path d="M16.95 18C17.25 18 17.5 17.9 17.7 17.7C17.9 17.5 18 17.25 18 16.95V12.9C18 12.6667 17.925 12.4623 17.775 12.287C17.625 12.1117 17.4333 11.9993 17.2 11.95L13.75 11.25C13.5167 11.2167 13.279 11.2377 13.037 11.313C12.795 11.3883 12.5993 11.5007 12.45 11.65L10.1 14C8.83333 13.2333 7.675 12.325 6.625 11.275C5.575 10.225 4.7 9.1 4 7.9L6.4 5.45C6.55 5.3 6.646 5.129 6.688 4.937C6.73 4.745 6.734 4.53267 6.7 4.3L6.05 0.8C6.01667 0.566667 5.90833 0.375 5.725 0.225C5.54167 0.0749999 5.33333 0 5.1 0H1.05C0.749999 0 0.499999 0.0999999 0.299999 0.3C0.0999992 0.5 0 0.75 0 1.05C0 3.2 0.479333 5.296 1.438 7.338C2.39667 9.38 3.66333 11.1883 5.238 12.763C6.81267 14.3377 8.621 15.6043 10.663 16.563C12.705 17.5217 14.8007 18.0007 16.95 18Z" />
        </g>
    </symbol>
    <symbol viewBox="0 0 59 59" id="ar">
        <g>
            <path d="M26.6473 20.4719L25.8711 21.2481L34.123 29.5L25.8711 37.7519L26.6473 38.5281L35.2873 29.8881L35.6586 29.5L35.2873 29.1119L26.6473 20.4719Z"/>
        </g>
    </symbol>
    <symbol viewBox="0 0 66 24" id="ar2">
        <g>
            <path d="M65.0607 13.0607C65.6464 12.4749 65.6464 11.5251 65.0607 10.9393L55.5147 1.3934C54.9289 0.807611 53.9792 0.807611 53.3934 1.3934C52.8076 1.97919 52.8076 2.92893 53.3934 3.51472L61.8787 12L53.3934 20.4853C52.8076 21.0711 52.8076 22.0208 53.3934 22.6066C53.9792 23.1924 54.9289 23.1924 55.5147 22.6066L65.0607 13.0607ZM0 13.5H64V10.5H0V13.5Z"/>
        </g>
    </symbol>
    <symbol viewBox="0 0 371 201" id="five">
        <g>
            <path d="m70.6206 115.312 77.4834 44.735-17.821 10.289-62.8724-36.299-34.9782 20.195 62.8722 36.299-17.8212 10.289L0 156.085l70.6206-40.773Zm81.0834-46.8134 77.484 44.7354-17.711 10.225-20.588-11.887-16.383 9.458 6.863 19.812-18.928 10.928-7.195-22.815c-7.379 1.789-14.611 2.258-21.695 1.406-7.158-.895-13.763-3.089-19.814-6.583-5.977-3.451-9.741-7.2-11.29-11.247-1.624-4.09-1.07-8.244 1.66-12.462 2.657-4.2607 7.38-8.3508 14.169-12.2704l33.428-19.3Zm-18.375 27.4801c-5.091 2.9397-7.822 5.8793-8.191 8.8193-.295 2.897 1.882 5.688 6.531 8.372 4.502 2.599 9.261 3.855 14.279 3.77 5.018-.085 10.036-1.576 15.054-4.473l15.718-9.075-28.115-16.2325-15.276 8.8192Zm111.618-64.4425-24.795 14.3152 62.873 36.2994-17.711 10.2251-62.872-36.2993-24.684 14.2513-14.611-8.4357 67.189-38.7918 14.611 8.4358Zm59.631-21.90221c9.446-5.45343 18.781-8.41447 28.005-8.88312 9.298-.511252 18.079 1.61899 26.344 6.39073 8.782 5.07 12.693 10.566 11.734 16.4881-.96 5.8368-6.494 11.6737-16.604 17.5106L319.079 61.335l-77.484-44.7351 17.821-10.28908 25.459 14.69868 19.703-11.37551Zm35.2 24.41261c4.649-2.6841 7.121-5.4322 7.416-8.2441.369-2.8545-1.623-5.5386-5.977-8.0523-8.044-4.6439-17.01-4.1114-26.898 1.5977l-16.161 9.3305 25.459 14.6986 16.161-9.3304Z"/>
        </g>
    </symbol>
    <symbol viewBox="0 0 266 179" id="years">
        <g>
            <path d="m60.0459 88.8741 77.4831 44.7349-17.71 10.225-62.8724-36.299-26.5658 15.338 15.6074 9.65c10.6263 6.561 18.6698 12.227 24.1305 16.999 5.387 4.729 8.265 9.118 8.6339 13.165.369 3.962-2.3983 7.648-8.3018 11.056-2.4352 1.406-5.7928 2.876-10.0728 4.41l-14.0577-9.395c1.2545-.383 2.472-.916 3.6527-1.597 4.2801-2.472 4.7597-5.646 1.439-9.523-3.3945-3.919-10.2573-9.117-20.5884-15.593L.494342 123.256 60.0459 88.8741Zm142.4401-9.3834 14.389 8.308-59.994 34.6373-77.4833-44.7347 58.5553-33.8069 14.39 8.3079-40.734 23.5179 16.825 9.7139 35.974-20.7698 13.947 8.0523-35.974 20.7698 17.932 10.3526 42.173-24.3483Zm25.221-70.54409L202.912 23.2618l62.872 36.2994-17.71 10.2251-62.872-36.2993-24.684 14.2513-14.612-8.4357L213.096.510849l14.611 8.435761Z"/>
        </g>
    </symbol>
    <symbol viewBox="0 0 24 24" id="pl">
        <g>
          <path d="M18.54 8.99978L8.88 3.45978C8.35729 3.15794 7.764 2.99982 7.16039 3.00148C6.55679 3.00314 5.96438 3.16451 5.44333 3.46922C4.92228 3.77393 4.49115 4.21111 4.19375 4.73636C3.89634 5.26161 3.74324 5.85621 3.75 6.45978V17.5798C3.75 18.4868 4.11032 19.3567 4.7517 19.9981C5.39307 20.6395 6.26296 20.9998 7.17 20.9998C7.77044 20.9988 8.36009 20.8401 8.88 20.5398L18.54 14.9998C19.0591 14.6994 19.49 14.2678 19.7896 13.7482C20.0892 13.2287 20.2469 12.6395 20.2469 12.0398C20.2469 11.4401 20.0892 10.8509 19.7896 10.3313C19.49 9.81181 19.0591 9.38019 18.54 9.07978V8.99978Z"/>
        </g>
    </symbol>
</svg>
