<svg xmlns="http://www.w3.org/2000/svg" fill="none" viewBox="0 0 79 79">
  <g filter="url(#a)">
    <rect width="60" height="60" x="1" y="22.7458" fill="#fff" fill-opacity=".7" rx="10" transform="rotate(-21.25 1 22.7458)"/>
    <circle cx="39.8341" cy="39.8333" r="20" fill="#2A2A2A" transform="rotate(-21.25 39.8341 39.8333)"/>
    <g fill="#fff" clip-path="url(#b)">
      <path d="M31.8295 36.2938c-.0507.115.4751 1.6511 1.1597 3.4116l1.2484 3.2103-.4695 1.1839c-.9942 2.5325.5338 4.9903 3.2056 5.2389 1.3934.1496 2.3875-.237 3.3218-1.268 1.7939-2.0089 1.2601-4.8533-1.1838-6.0488-1.413-.6904-1.8387-1.4786-1.0091-1.9204.4188-.2106.4948-.3832.3337-.7974-.1611-.4142-.3337-.4902-.7847-.3624-.5006.1231-.6444.0598-.8377-.4373-.1933-.4971-.13-.6409.3222-.8883.4188-.2105.4948-.3831.3337-.7973-.1611-.4143-.3337-.4902-.7847-.3625-.5213.1312-.6237.0518-.9838-.6904l-.4004-.8457-1.6811.5822c-.94.3417-1.7397.6765-1.7903.7916Zm4.0961 3.6049c1.2162 3.1275 1.2875 3.4335.9964 3.6659-.703.5834-.9447 1.6788-.5581 2.6729.306.7871.4982.9746 1.3289 1.2715l.9539.3682-.7606.1289c-.4176.0909-1.1552-.0277-1.6361-.2221-.7272-.3372-.9274-.5454-1.2738-1.436-.3866-.9942-.3727-1.1426.1738-2.1897l.5638-1.1253-1.1758-3.0238-1.1759-3.0239.6213-.2416.6214-.2416 1.3208 3.3966Zm4.6564-5.8647c-.8147 1.8905-.6421 2.3956.6742 1.9791l.9148-.2842 2.071 5.2031 2.0918 5.1951.5178-.2013.5177-.2014-1.9674-5.2434-1.9882-5.2353.8664-.4085c1.2519-.5822 1.0379-1.0712-.8399-1.9147-.8423-.3877-1.6776-.6351-1.864-.5626-.1864.0724-.6352.8192-.9942 1.6741Z"/>
    </g>
  </g>
  <defs>
    <clipPath id="b">
      <path fill="#fff" d="M0 0h20v20H0z" transform="rotate(-21.25 107.5988549 -52.4370772)"/>
    </clipPath>
    <filter id="a" width="165.667" height="165.667" x="-43" y="-43" color-interpolation-filters="sRGB" filterUnits="userSpaceOnUse">
      <feFlood flood-opacity="0" result="BackgroundImageFix"/>
      <feGaussianBlur in="BackgroundImageFix" stdDeviation="22"/>
      <feComposite in2="SourceAlpha" operator="in" result="effect1_backgroundBlur_1_1814"/>
      <feBlend in="SourceGraphic" in2="effect1_backgroundBlur_1_1814" result="shape"/>
      <feGaussianBlur result="effect2_foregroundBlur_1_1814" stdDeviation="1.5"/>
    </filter>
  </defs>
</svg>
