<svg width="72" height="72" viewBox="0 0 72 72" fill="none" xmlns="http://www.w3.org/2000/svg">
<g filter="url(#filter0_bf_1_1809)">
<rect x="12.1016" y="1" width="60" height="60" rx="10" transform="rotate(10.6607 12.1016 1)" fill="white" fill-opacity="0.7"/>
<circle cx="36.0331" cy="36.032" r="20" transform="rotate(10.6607 36.0331 36.032)" fill="#2A2A2A"/>
<g clip-path="url(#clip0_1_1809)">
<path d="M33.0923 29.7805C30.7748 31.0402 28.8137 32.2087 28.6934 32.3669C28.4666 32.7312 28.8088 33.3158 29.3111 33.4103C29.7042 33.4843 29.6849 33.7068 29.0066 37.3102C28.3406 40.848 28.3226 41.1838 28.6417 41.6509C28.9785 42.144 29.2802 42.2234 34.6743 43.2388C40.0685 44.2542 40.3783 44.2899 40.8714 43.9531C41.3385 43.634 41.4438 43.3146 42.1057 39.7986L42.8251 35.9768L43.4489 36.0264C44.3389 36.1035 44.5306 35.3255 43.7899 34.5756C43.2606 34.0237 43.2457 33.8626 43.4556 32.3871L43.6861 30.8024L42.8125 30.6379C42.0045 30.4858 41.9308 30.5172 41.6982 31.1518L41.4575 31.83L39.7076 29.7142C38.7529 28.5396 37.8048 27.5697 37.6301 27.5368C37.4554 27.5039 35.4098 28.5208 33.0923 29.7805ZM37.0564 33.8281C37.1108 34.0193 37.4055 34.2556 37.703 34.3569C38.1097 34.4787 38.212 34.6562 38.1339 35.0711C38.0517 35.5079 37.896 35.6143 37.4291 35.5716C37.006 35.5372 36.7807 35.6531 36.7313 35.9151C36.6286 36.4611 36.9505 36.793 37.944 37.161C38.9771 37.559 39.633 38.5191 39.4686 39.3926C39.3576 39.9823 39.2797 40.0355 38.6901 39.9245C38.2097 39.834 38.0555 39.6919 38.1089 39.408C38.2816 38.4908 37.4751 38.0903 36.2681 38.4962C35.543 38.7441 35.4993 38.7359 34.9141 38.2413C34.5798 37.9749 33.8702 37.6604 33.3461 37.5617C32.4288 37.3891 32.3893 37.359 32.5085 36.7257C32.6277 36.0924 32.6537 36.0747 33.6801 36.2679C34.2479 36.3748 34.8581 36.3766 35.0397 36.2525C35.5328 35.9156 35.5646 35.2659 35.0842 35.1754C34.5601 35.0768 34.2042 34.4445 34.4611 34.0406C34.5595 33.8782 34.8722 33.7788 35.178 33.8363C35.4619 33.8898 35.7746 33.7903 35.8948 33.6321C36.1258 33.2459 36.8942 33.368 37.0564 33.8281ZM38.7841 42.0677C39.0359 43.1327 38.1878 43.674 37.6983 42.7905C37.5293 42.4873 37.5663 42.2907 37.8191 41.9087C38.2782 41.2715 38.584 41.3291 38.7841 42.0677Z" fill="white"/>
</g>
</g>
<defs>
<filter id="filter0_bf_1_1809" x="-42.998" y="-43" width="158.064" height="158.064" filterUnits="userSpaceOnUse" color-interpolation-filters="sRGB">
<feFlood flood-opacity="0" result="BackgroundImageFix"/>
<feGaussianBlur in="BackgroundImageFix" stdDeviation="22"/>
<feComposite in2="SourceAlpha" operator="in" result="effect1_backgroundBlur_1_1809"/>
<feBlend mode="normal" in="SourceGraphic" in2="effect1_backgroundBlur_1_1809" result="shape"/>
<feGaussianBlur stdDeviation="1" result="effect2_foregroundBlur_1_1809"/>
</filter>
<clipPath id="clip0_1_1809">
<rect width="20" height="20" fill="white" transform="translate(28.0547 24.3547) rotate(10.6607)"/>
</clipPath>
</defs>
</svg>
