<svg width="237" height="237" viewBox="0 0 237 237" fill="none" xmlns="http://www.w3.org/2000/svg">
<g filter="url(#filter0_bd_1_1802)">
<rect x="45" y="72.3286" width="120" height="120" rx="20" transform="rotate(-15.1337 45 72.3286)" fill="white" fill-opacity="0.7" shape-rendering="crispEdges"/>
<circle cx="118.583" cy="114.583" r="40" transform="rotate(-15.1337 118.583 114.583)" fill="#2A2A2A"/>
<g clip-path="url(#clip0_1_1802)">
<path d="M108.469 104.427C105.548 107.243 103.012 109.955 102.816 110.422C102.569 111.041 103.207 113.908 105.144 121.073C107.639 130.297 107.844 130.886 108.88 131.48C109.479 131.825 110.142 132.06 110.399 131.99C110.656 131.921 109.819 128.142 108.043 121.578L105.259 111.281L116.842 108.148L128.426 105.015L131.211 115.312C132.986 121.876 134.167 125.562 134.425 125.493C134.682 125.423 135.136 124.886 135.48 124.286C136.075 123.251 135.955 122.639 133.437 113.329C131.024 104.405 130.659 103.398 129.787 102.898C128.534 102.178 115.178 98.9295 114.363 99.15C114.02 99.2428 111.391 101.611 108.469 104.427Z" fill="white"/>
<path d="M109.052 115.09L109.574 117.02L118.584 114.584L127.594 112.147L127.071 110.216L126.549 108.286L117.54 110.722L108.53 113.159L109.052 115.09Z" fill="white"/>
<path d="M118.85 120.681L119.72 123.898L118.082 124.48L116.444 125.061L119.457 127.008L122.469 128.956L124.09 125.755L125.711 122.555L124.003 122.878L122.295 123.202L121.424 119.984L120.566 116.81L119.279 117.158L117.991 117.506L118.85 120.681Z" fill="white"/>
</g>
</g>
<defs>
<filter id="filter0_bd_1_1802" x="-4" y="-4" width="245.167" height="245.167" filterUnits="userSpaceOnUse" color-interpolation-filters="sRGB">
<feFlood flood-opacity="0" result="BackgroundImageFix"/>
<feGaussianBlur in="BackgroundImageFix" stdDeviation="22"/>
<feComposite in2="SourceAlpha" operator="in" result="effect1_backgroundBlur_1_1802"/>
<feColorMatrix in="SourceAlpha" type="matrix" values="0 0 0 0 0 0 0 0 0 0 0 0 0 0 0 0 0 0 127 0" result="hardAlpha"/>
<feOffset dy="4"/>
<feGaussianBlur stdDeviation="24.5"/>
<feComposite in2="hardAlpha" operator="out"/>
<feColorMatrix type="matrix" values="0 0 0 0 0 0 0 0 0 0 0 0 0 0 0 0 0 0 0.13 0"/>
<feBlend mode="normal" in2="effect1_backgroundBlur_1_1802" result="effect2_dropShadow_1_1802"/>
<feBlend mode="normal" in="SourceGraphic" in2="effect2_dropShadow_1_1802" result="shape"/>
</filter>
<clipPath id="clip0_1_1802">
<rect width="40" height="40" fill="white" transform="translate(94.0547 100.499) rotate(-15.1337)"/>
</clipPath>
</defs>
</svg>
